<svg xmlns="http://www.w3.org/2000/svg" width="1366" height="768" viewBox="0 0 1366 768" role="img" aria-labelledby="title desc">
  <title id="title">TaskBoard Tasks Screenshot</title>
  <desc id="desc">Sample tasks page screenshot for educational README.</desc>
  <defs>
    <linearGradient id="bg" x1="0" y1="0" x2="1" y2="1">
      <stop offset="0%" stop-color="#020617" />
      <stop offset="100%" stop-color="#111827" />
    </linearGradient>
  </defs>

  <rect width="1366" height="768" fill="url(#bg)" />

  <rect x="0" y="0" width="1366" height="86" fill="#0b1220" stroke="#1f2937" />
  <text x="70" y="52" fill="#f8fafc" font-size="30" font-family="Arial, Helvetica, sans-serif" font-weight="700">TaskBoard</text>
  <text x="70" y="74" fill="#94a3b8" font-size="16" font-family="Arial, Helvetica, sans-serif">tasks: 3</text>

  <rect x="1140" y="23" width="160" height="40" rx="10" fill="#0f172a" stroke="#334155" />
  <text x="1220" y="48" fill="#e2e8f0" font-size="15" text-anchor="middle" font-family="Arial, Helvetica, sans-serif">Logout</text>

  <rect x="70" y="118" width="1226" height="175" rx="14" fill="#0f172a" stroke="#1f2937" />
  <text x="100" y="158" fill="#e2e8f0" font-size="18" font-family="Arial, Helvetica, sans-serif">Create Task</text>

  <rect x="100" y="178" width="560" height="42" rx="8" fill="#020617" stroke="#1f2937" />
  <text x="116" y="205" fill="#64748b" font-size="14" font-family="Arial, Helvetica, sans-serif">Title: Prepare project report</text>

  <rect x="680" y="178" width="586" height="42" rx="8" fill="#020617" stroke="#1f2937" />
  <text x="696" y="205" fill="#64748b" font-size="14" font-family="Arial, Helvetica, sans-serif">Description: Include milestones and risks</text>

  <rect x="100" y="234" width="220" height="38" rx="8" fill="#020617" stroke="#1f2937" />
  <text x="116" y="258" fill="#94a3b8" font-size="14" font-family="Arial, Helvetica, sans-serif">Status: doing</text>

  <rect x="336" y="234" width="220" height="38" rx="8" fill="#020617" stroke="#1f2937" />
  <text x="352" y="258" fill="#94a3b8" font-size="14" font-family="Arial, Helvetica, sans-serif">Priority: high</text>

  <rect x="1106" y="233" width="160" height="40" rx="10" fill="#059669" />
  <text x="1186" y="258" fill="#ffffff" font-size="15" text-anchor="middle" font-family="Arial, Helvetica, sans-serif" font-weight="700">Add Task</text>

  <rect x="70" y="328" width="1226" height="120" rx="14" fill="#0f172a" stroke="#1f2937" />
  <text x="100" y="364" fill="#f8fafc" font-size="18" font-family="Arial, Helvetica, sans-serif" font-weight="700">Prepare project report</text>
  <text x="100" y="390" fill="#94a3b8" font-size="14" font-family="Arial, Helvetica, sans-serif">Include milestones and risks before Friday.</text>
  <rect x="100" y="406" width="100" height="28" rx="8" fill="#1e293b" stroke="#334155" />
  <text x="150" y="425" fill="#cbd5e1" font-size="12" text-anchor="middle" font-family="Arial, Helvetica, sans-serif">status: doing</text>
  <rect x="212" y="406" width="104" height="28" rx="8" fill="#1e293b" stroke="#334155" />
  <text x="264" y="425" fill="#cbd5e1" font-size="12" text-anchor="middle" font-family="Arial, Helvetica, sans-serif">priority: high</text>
  <rect x="1120" y="348" width="80" height="36" rx="9" fill="#0f172a" stroke="#334155" />
  <text x="1160" y="371" fill="#e2e8f0" font-size="13" text-anchor="middle" font-family="Arial, Helvetica, sans-serif">Edit</text>
  <rect x="1212" y="348" width="80" height="36" rx="9" fill="#3f1d25" stroke="#7f1d1d" />
  <text x="1252" y="371" fill="#fecdd3" font-size="13" text-anchor="middle" font-family="Arial, Helvetica, sans-serif">Delete</text>

  <rect x="70" y="466" width="1226" height="120" rx="14" fill="#0f172a" stroke="#1f2937" />
  <text x="100" y="502" fill="#f8fafc" font-size="18" font-family="Arial, Helvetica, sans-serif" font-weight="700">Review SQL policies</text>
  <text x="100" y="528" fill="#94a3b8" font-size="14" font-family="Arial, Helvetica, sans-serif">Verify RLS select/insert/update/delete behavior.</text>
  <rect x="100" y="544" width="90" height="28" rx="8" fill="#1e293b" stroke="#334155" />
  <text x="145" y="563" fill="#cbd5e1" font-size="12" text-anchor="middle" font-family="Arial, Helvetica, sans-serif">status: todo</text>
  <rect x="202" y="544" width="100" height="28" rx="8" fill="#1e293b" stroke="#334155" />
  <text x="252" y="563" fill="#cbd5e1" font-size="12" text-anchor="middle" font-family="Arial, Helvetica, sans-serif">priority: mid</text>

  <rect x="40" y="36" width="264" height="54" rx="10" fill="#0f172a" stroke="#334155" />
  <text x="58" y="70" fill="#e2e8f0" font-size="18" font-family="Arial, Helvetica, sans-serif">Screenshot: Tasks Page</text>
</svg>
